<?xml version="1.0" encoding="UTF-8"?>
<svg width="800px" height="450px" viewBox="0 0 800 450" version="1.1" xmlns="http://www.w3.org/2000/svg" xmlns:xlink="http://www.w3.org/1999/xlink">
    <title>Deep Learning Pipeline</title>
    <defs>
        <linearGradient x1="0%" y1="0%" x2="100%" y2="100%" id="gradient">
            <stop stop-color="#4A3520" stop-opacity="0.9" offset="0%"></stop>
            <stop stop-color="#6d4c30" stop-opacity="0.85" offset="100%"></stop>
        </linearGradient>
        <pattern id="pattern" width="60" height="60" patternUnits="userSpaceOnUse">
            <path d="M10,30 C10,20 20,10 30,10 C40,10 50,20 50,30 C50,40 40,50 30,50 C20,50 10,40 10,30 Z" fill="none" stroke="#e8d9b5" stroke-width="3"/>
            <circle cx="30" cy="10" r="4" fill="#e8d9b5"/>
            <circle cx="50" cy="30" r="4" fill="#e8d9b5"/>
            <circle cx="30" cy="50" r="4" fill="#e8d9b5"/>
            <circle cx="10" cy="30" r="4" fill="#e8d9b5"/>
        </pattern>
        <filter id="shadow" x="-5%" y="-5%" width="110%" height="110%">
            <feDropShadow dx="2" dy="2" stdDeviation="2" flood-color="#000000" flood-opacity="0.3"/>
        </filter>
    </defs>
    <rect width="800" height="450" fill="url(#gradient)"/>
    <rect width="800" height="450" fill="url(#pattern)" opacity="0.5"/>
    <g transform="translate(170, 110)" filter="url(#shadow)">
        <path d="M30,0 L430,0 C445.464,0 458,12.536 458,28 L458,202 C458,217.464 445.464,230 430,230 L30,230 C14.536,230 2,217.464 2,202 L2,28 C2,12.536 14.536,0 30,0 Z" fill="#e8d9b5" opacity="0.9"/>
    </g>
    <text x="400" y="180" font-family="Arial, sans-serif" font-size="32" font-weight="bold" text-anchor="middle" fill="#4A3520">End-to-End Deep Learning Pipeline</text>
    <text x="400" y="225" font-family="Arial, sans-serif" font-size="18" text-anchor="middle" fill="#4A3520">Disease Classification with TensorFlow</text>
    
    <!-- Neural network visualization -->
    <g transform="translate(270, 250)">
        <!-- Input layer -->
        <circle cx="0" cy="0" r="8" fill="#4A3520"/>
        <circle cx="0" cy="40" r="8" fill="#4A3520"/>
        <circle cx="0" cy="80" r="8" fill="#4A3520"/>
        <circle cx="0" cy="120" r="8" fill="#4A3520"/>
        
        <!-- Hidden layer 1 -->
        <circle cx="80" cy="20" r="8" fill="#4A3520"/>
        <circle cx="80" cy="60" r="8" fill="#4A3520"/>
        <circle cx="80" cy="100" r="8" fill="#4A3520"/>
        
        <!-- Hidden layer 2 -->
        <circle cx="160" cy="40" r="8" fill="#4A3520"/>
        <circle cx="160" cy="80" r="8" fill="#4A3520"/>
        
        <!-- Output layer -->
        <circle cx="240" cy="60" r="8" fill="#4A3520"/>
        
        <!-- Connections -->
        <!-- Layer 1 to 2 -->
        <line x1="0" y1="0" x2="80" y2="20" stroke="#4A3520" stroke-width="1.5" opacity="0.6"/>
        <line x1="0" y1="0" x2="80" y2="60" stroke="#4A3520" stroke-width="1.5" opacity="0.6"/>
        <line x1="0" y1="0" x2="80" y2="100" stroke="#4A3520" stroke-width="1.5" opacity="0.6"/>
        <line x1="0" y1="40" x2="80" y2="20" stroke="#4A3520" stroke-width="1.5" opacity="0.6"/>
        <line x1="0" y1="40" x2="80" y2="60" stroke="#4A3520" stroke-width="1.5" opacity="0.6"/>
        <line x1="0" y1="40" x2="80" y2="100" stroke="#4A3520" stroke-width="1.5" opacity="0.6"/>
        <line x1="0" y1="80" x2="80" y2="20" stroke="#4A3520" stroke-width="1.5" opacity="0.6"/>
        <line x1="0" y1="80" x2="80" y2="60" stroke="#4A3520" stroke-width="1.5" opacity="0.6"/>
        <line x1="0" y1="80" x2="80" y2="100" stroke="#4A3520" stroke-width="1.5" opacity="0.6"/>
        <line x1="0" y1="120" x2="80" y2="20" stroke="#4A3520" stroke-width="1.5" opacity="0.6"/>
        <line x1="0" y1="120" x2="80" y2="60" stroke="#4A3520" stroke-width="1.5" opacity="0.6"/>
        <line x1="0" y1="120" x2="80" y2="100" stroke="#4A3520" stroke-width="1.5" opacity="0.6"/>
        
        <!-- Layer 2 to 3 -->
        <line x1="80" y1="20" x2="160" y2="40" stroke="#4A3520" stroke-width="1.5" opacity="0.6"/>
        <line x1="80" y1="20" x2="160" y2="80" stroke="#4A3520" stroke-width="1.5" opacity="0.6"/>
        <line x1="80" y1="60" x2="160" y2="40" stroke="#4A3520" stroke-width="1.5" opacity="0.6"/>
        <line x1="80" y1="60" x2="160" y2="80" stroke="#4A3520" stroke-width="1.5" opacity="0.6"/>
        <line x1="80" y1="100" x2="160" y2="40" stroke="#4A3520" stroke-width="1.5" opacity="0.6"/>
        <line x1="80" y1="100" x2="160" y2="80" stroke="#4A3520" stroke-width="1.5" opacity="0.6"/>
        
        <!-- Layer 3 to 4 -->
        <line x1="160" y1="40" x2="240" y2="60" stroke="#4A3520" stroke-width="1.5" opacity="0.6"/>
        <line x1="160" y1="80" x2="240" y2="60" stroke="#4A3520" stroke-width="1.5" opacity="0.6"/>
    </g>
</svg>
